<?xml version="1.0" standalone="no"?>
<!DOCTYPE svg PUBLIC "-//W3C//DTD SVG 20010904//EN"
 "http://www.w3.org/TR/2001/REC-SVG-20010904/DTD/svg10.dtd">
<svg version="1.0" xmlns="http://www.w3.org/2000/svg"
 width="240.000000pt" height="240.000000pt" viewBox="0 0 240.000000 240.000000"
 preserveAspectRatio="xMidYMid meet">
<metadata>
Created by potrace 1.14, written by Peter Selinger 2001-2017
</metadata>
<g transform="translate(0.000000,240.000000) scale(0.100000,-0.100000)"
fill="#000000" stroke="none">
<path d="M1892 2386 c-138 -45 -227 -132 -272 -267 -18 -51 -21 -79 -17 -140
l5 -75 -121 -65 c-67 -35 -187 -99 -267 -141 -80 -42 -145 -80 -145 -85 0 -6
61 -133 82 -172 1 -2 116 57 255 132 139 74 262 139 274 145 17 9 26 6 52 -19
92 -87 258 -121 381 -79 132 44 214 127 265 265 5 11 10 51 13 88 9 123 -30
223 -121 312 -79 76 -149 106 -261 111 -51 3 -95 -1 -123 -10z"/>
<path d="M385 1686 c-239 -59 -399 -276 -382 -519 30 -428 544 -621 848 -318
109 109 157 238 146 392 -22 301 -319 517 -612 445z"/>
<path d="M1115 878 c-22 -45 -41 -84 -43 -88 -2 -4 119 -72 267 -151 l270
-144 -6 -71 c-17 -216 147 -403 370 -420 326 -26 539 335 362 611 -126 197
-390 243 -576 100 l-57 -43 -268 144 c-148 79 -271 143 -274 143 -3 0 -23 -37
-45 -81z"/>
</g>
</svg>
