<?xml version="1.0" encoding="utf-8"?>
<!-- Generator: Adobe Illustrator 26.1.0, SVG Export Plug-In . SVG Version: 6.00 Build 0)  -->
<svg version="1.1" id="Laag_1" xmlns="http://www.w3.org/2000/svg" xmlns:xlink="http://www.w3.org/1999/xlink" x="0px" y="0px"
	 viewBox="0 0 560.8 560" style="enable-background:new 0 0 560.8 560;" xml:space="preserve">
<style type="text/css">
	.st0{fill:#007BFF;}
</style>
<g>
	<path class="st0" d="M199,382.9c39.1,0,95,1.5,115.7,3.7c6.6,0.7,13.3,3.9,18.2,8.8c4.9,4.9,7.9,11.2,8.6,17.8
		c0.5,5.3,1.9,21,1.9,30.4c0,9.5-1.4,24.4-1.9,29.4l0,0.2c-0.8,7.8-4.6,16.1-10.4,22.8c-5.8,6.6-13.2,11.2-20.3,12.7
		c-0.2,0-0.4,0.1-0.6,0.1c-18.8,4.3-72.6,9.4-108.7,9.4h-2.3h-0.3c-0.3,0-0.7,0-1,0c-2.3,0.1-4.8,0.1-7.5,0.1
		c-38.4,0-98.8-5.4-115.8-9.5c-0.4-0.1-0.7-0.2-1.1-0.2c-7.2-1.5-14.6-6.1-20.3-12.7c-5.8-6.7-9.6-15-10.4-22.8
		c-0.1-0.6-0.1-0.8-0.2-1.4c-0.1-1.1-1.1-9.9-1.1-25.4c0-16.5,1.1-31.1,1.3-33.6c0.8-6.5,3.8-12.6,8.5-17.4
		c4.9-4.9,11.6-8.2,18.2-8.9c21.2-2.2,90.7-3.7,129.2-3.7L199,382.9 M199,341.3h-0.3c-37,0-109.6,1.4-133.5,3.9
		c-16.3,1.7-31.6,9.2-43.2,20.8c-11.6,11.6-18.9,26.7-20.5,42.8c0,0-1.5,17.2-1.5,37.6c0,20.3,1.5,31,1.5,31
		c1.7,16.4,8.9,32.7,20.5,45.9c11.5,13.2,26.8,22.6,43,26c22.1,5.3,86.6,10.6,125.4,10.6c3,0,5.8,0,8.5-0.1h2.6
		c37.2,0,94.6-5.2,117.9-10.5c16.3-3.4,31.5-12.9,43-26c11.5-13.2,18.8-29.4,20.5-45.9c0,0,2.2-20.1,2.2-33.9s-2.2-34.8-2.2-34.8
		c-1.7-16.2-9-31.3-20.5-42.9c-11.6-11.6-26.9-19.1-43.2-20.8C295.3,342.7,236,341.3,199,341.3L199,341.3z"/>
	<path class="st0" d="M190,123.9c40.8,0,74.1,33.2,74.1,74.1S230.8,272,190,272s-74-33.2-74-74.1S149.2,123.9,190,123.9 M190,82.3
		c-63.9,0-115.6,51.8-115.6,115.6c0,63.9,51.8,115.6,115.6,115.6s115.6-51.8,115.6-115.6C305.6,134.1,253.8,82.3,190,82.3z"/>
	<path class="st0" d="M267,88.9c-7.5-6-9.9-16.4-5.7-25.1c18.6-39,58.4-66,104.5-66c63.5,0,115.1,51.2,115.6,114.6
		c0.5,63-50.2,115.3-113.2,116.6c-9.9,0.2-19.6-0.9-28.9-3c-9.2-2.2-16-10.5-16-20.1c-0.1-13.5,12.5-23.4,25.6-20.3
		c5.4,1.3,11,1.9,16.8,1.9c42,0,76-35.2,74-77.7c-1.8-37.4-31.8-67.9-69.2-70.3c-31.5-2-59.1,15.8-71.7,42.2
		C293.1,93.7,277.5,97.3,267,88.9L267,88.9z"/>
	<path class="st0" d="M305.5,265.4c3.9-5,9.8-8,16.1-8.1c19.7-0.4,38.9-0.6,53-0.6h0.3c37,0,96.2,1.4,120.1,3.9
		c16.3,1.7,31.6,9.2,43.2,20.8c11.6,11.6,18.9,26.7,20.5,42.9c0,0,2.2,21,2.2,34.8s-2.2,33.9-2.2,33.9c-1.7,16.4-8.9,32.7-20.5,45.9
		c-11.5,13.2-26.8,22.6-43,26c-14.4,3.2-41.6,6.5-69.1,8.5c-12.3,0.9-22.7-9.1-22.3-21.5c0.4-10.6,8.7-19.2,19.3-20
		c26.1-1.9,51.2-4.9,62.9-7.5c0.2,0,0.4-0.1,0.6-0.1c7.2-1.5,14.6-6.1,20.3-12.7c5.8-6.6,9.6-15,10.4-22.8l0-0.2
		c0.5-5,1.9-20,1.9-29.4s-1.4-25.1-1.9-30.4c-0.7-6.6-3.8-12.9-8.6-17.8c-4.9-4.9-11.5-8.1-18.2-8.8c-20.7-2.2-76.6-3.7-115.7-3.7
		h-0.3c-14.4,0-33.2,0.2-52.1,0.6C304.9,299.1,294.8,279.2,305.5,265.4L305.5,265.4z"/>
</g>
</svg>
