<?xml version="1.0" encoding="utf-8"?>
<!-- Generator: Adobe Illustrator 26.1.0, SVG Export Plug-In . SVG Version: 6.00 Build 0)  -->
<svg version="1.1" id="Laag_1" xmlns="http://www.w3.org/2000/svg" xmlns:xlink="http://www.w3.org/1999/xlink" x="0px" y="0px"
	 viewBox="0 0 481.5 481.5" style="enable-background:new 0 0 481.5 481.5;" xml:space="preserve">
<style type="text/css">
	.st0{fill:#7C7C7C;}
</style>
<g>
	<path class="st0" d="M477.4,457.6L347,327.3c30.2-34.7,48.5-80,48.5-129.5C395.5,88.7,306.8,0,197.8,0C88.7,0,0,88.7,0,197.8
		c0,109,88.7,197.8,197.8,197.8c49.5,0,94.8-18.3,129.5-48.5l130.3,130.3c2.7,2.7,6.3,4.1,9.9,4.1c3.6,0,7.2-1.4,9.9-4.1
		C482.8,471.9,482.8,463,477.4,457.6L477.4,457.6z M28,197.8C28,104.2,104.2,28,197.8,28c93.6,0,169.8,76.2,169.8,169.8
		s-76.2,169.8-169.8,169.8C104.2,367.5,28,291.4,28,197.8L28,197.8z"/>
</g>
</svg>
