<svg version="1.1" id="Laag_1" xmlns="http://www.w3.org/2000/svg" xmlns:xlink="http://www.w3.org/1999/xlink" x="0px" y="0px" style="enable-background:new 0 0 99.2 38.7;" xml:space="preserve" viewBox="0 0 99.32 38.8"> <style type="text/css"> 	.st0{fill:#1D1D1B;} </style> <g> 	<g id="logo"> 		<path class="st0" d="M28.8,35c2,0.1,3.7-1.4,3.9-3.4c0-0.2,0-0.4,0-0.6V19.1H38v12.1c0,5.3-4.3,7.4-9.1,7.4s-9.1-2.1-9.1-7.4V19.1 			H25V31c-0.2,2,1.3,3.8,3.3,4C28.4,35,28.6,35,28.8,35z"></path> 		<polygon class="st0" points="5.9,38.3 11.2,38.3 11.2,22.9 17.2,22.9 17.2,19.1 0,19.1 0,22.9 5.9,22.9 		"></polygon> 		<path class="st0" d="M18.7,9.8C17.4,10.2,16,9.9,16,8.2c0-2.6,6.2-4.8,7-7.2c0.2-0.6,0.2-1,0-1s0,0.3-0.5,0.7 			c-2.6,2.5-6.9,2.5-10.1,4c-2.2,1-8.5,4-7,10.6c0.1,0.3,0.3,1.4,0.4,1.4s0.2-0.6,0.2-1.4c0-4,4.6-5.1,6.2-7.7 			c0.2-0.3,0.5-0.7,0.6-0.5c0,0.2,0,0.3,0,0.5c-0.5,2.1-2.7,3.5-2.1,5c0.8,2,3.2,0.5,3.9-0.8c0.2-0.4,0.3-0.6,0.4-0.5s0.1,0.4,0,0.8 			c-0.4,2.3-0.9,3.6-2.6,4.9c-0.5,0.4-1.4,0.5-1.3,0.8c0,0.1,0.4,0.1,0.7,0C16.3,17.6,20,12.4,21,9c0.1-0.2,0.1-0.5,0-0.6 			s-0.3,0.1-0.5,0.3C20,9.2,19.3,9.6,18.7,9.8z"></path> 		<path class="st0" d="M63.9,30.3c0-2.1,1.3-4,3.4-4c2.4,0,3.4,1.7,3.4,4H63.9z M73.3,32.1v-1.2c0-3.7-2.1-6.3-5.9-6.3 			c-4.2,0-6.2,3.3-6.2,7.2s1.7,7,6,7c3.2,0,5.5-1.5,5.9-4.5h-2.7c-0.3,1.9-1.3,2.7-3.2,2.7c-2.6,0-3.4-2.3-3.4-4.8L73.3,32.1z"></path> 		<rect x="76.4" y="19.1" class="st0" width="2.5" height="19.1"></rect> 		<path class="st0" d="M86.8,38.3V26.7h3.1V25h-3.1v-2.2c0-1.5,0.7-1.8,2.2-1.8c0.4,0,0.8,0,1.3,0.1V19c-0.6-0.2-1.2-0.2-1.8-0.3 			c-2.4,0-4.2,1.2-4.2,3.7V25h-2.6v1.8h2.6v11.5H86.8z"></path> 		<path class="st0" d="M91.3,25v1.8h2.3v8.5c0,1.8,0,3.5,3.8,3.5c0.6,0,1.2-0.1,1.7-0.2v-2c-0.4,0.1-0.9,0.1-1.3,0.2 			c-0.9,0-1.6-0.5-1.6-1.4v-8.6h3.1V25h-3.1v-3.6l-2.5,0.8V25H91.3z"></path> 		<path class="st0" d="M43.3,38.3h6.6c8.2,0,9-6.9,9-9.6s-0.9-9.6-9-9.6h-6.6V38.3z M45.9,21.4h3.9c4.4,0,6.3,3.3,6.3,7.3 			S54.3,36,49.8,36h-3.9L45.9,21.4z"></path> 	</g> </g> </svg>